# xmcd CD database file
#
# Track frame offsets:
#	150
#	37804
#	97208
#	109377
#	124185
#
# Disc length: 2537 seconds
#
# Revision: 0
# Processed by: cddbd v1.5.1PL0 Copyright (c) Steve Scherf et al.
# Submitted via: CDex 1.51
#
DISCID=4009e705
DTITLE=Miles Davis - More Live At Fillmore East (March 6, 1970)
DYEAR=1900
DGENRE=Jazz
TTITLE0=Directions
TTITLE1=Miles Runs The Voodoo Down
TTITLE2=I Fall In Love Too Easily
TTITLE3=Sanctuary
TTITLE4=It's About That Time - Theme
EXTD=
EXTT0=
EXTT1=
EXTT2=
EXTT3=
EXTT4=
PLAYORDER=
